<?xml version="1.0" encoding="iso-8859-1"?>
<!-- Generator: Adobe Illustrator 19.0.0, SVG Export Plug-In . SVG Version: 6.00 Build 0)  -->
<svg version="1.1" id="Capa_1" xmlns="http://www.w3.org/2000/svg" xmlns:xlink="http://www.w3.org/1999/xlink" x="0px" y="0px"
	 viewBox="0 0 364.068 364.068" style="enable-background:new 0 0 364.068 364.068;" xml:space="preserve">
<path id="XMLID_995_" d="M319.698,69.234c-5.601-23.047-24.371-40.236-47.821-43.792l-28.329-4.296l-12.801,24.23
	c-9.712,18.383-27.922,29.357-48.712,29.357s-39-10.975-48.712-29.357l-12.801-24.23l-28.329,4.296
	c-23.45,3.556-42.221,20.746-47.821,43.792L1.669,244.961c-4.243,17.46-0.307,35.577,10.798,49.703
	c11.104,14.126,27.779,22.228,45.748,22.228h0.33l-3.76,26.031h254.501l-3.76-26.031h0.33c17.969,0,34.643-8.102,45.748-22.228
	c11.105-14.126,15.041-32.242,10.798-49.703L319.698,69.234z M335.878,282.304c-5.633,7.166-13.449,11.969-22.154,13.782
	l-32.661-177.471h-24.387l29.511,204.309H77.88l29.511-204.309H83.005L50.344,296.085c-8.705-1.813-16.521-6.616-22.154-13.782
	c-7.288-9.271-9.871-21.161-7.086-32.62L63.805,73.956C67.48,58.83,79.8,47.549,95.19,45.216l14.283-2.166l6.165,11.668
	c13.237,25.056,38.059,40.015,66.396,40.015s53.159-14.959,66.396-40.015l6.165-11.668l14.283,2.166
	c15.39,2.333,27.709,13.615,31.385,28.741l42.702,175.728C345.749,261.143,343.166,273.033,335.878,282.304z"/>
<g>
</g>
<g>
</g>
<g>
</g>
<g>
</g>
<g>
</g>
<g>
</g>
<g>
</g>
<g>
</g>
<g>
</g>
<g>
</g>
<g>
</g>
<g>
</g>
<g>
</g>
<g>
</g>
<g>
</g>
</svg>
